/* XPM */
static char * disobedience32x32_xpm[] = {
"32 32 650 2",
"  	c None",
". 	c #FBDE8D",
"+ 	c #FDE18E",
"@ 	c #FCE292",
"# 	c #FBD781",
"$ 	c #FEDF83",
"% 	c #FFE082",
"& 	c #FFDE7D",
"* 	c #FFDF7D",
"= 	c #FFE185",
"- 	c #FEE189",
"; 	c #FBDE8E",
"> 	c #FBD681",
", 	c #FFD56F",
"' 	c #FFD76F",
") 	c #FFDA75",
"! 	c #FFDD7D",
"~ 	c #FFDC7A",
"{ 	c #FFD973",
"] 	c #FFD972",
"^ 	c #FFDA78",
"/ 	c #FDD981",
"( 	c #FFDB7B",
"_ 	c #FFDC7B",
": 	c #FFDF81",
"< 	c #FFDE80",
"[ 	c #FFDE7F",
"} 	c #FFDD7E",
"| 	c #FFD978",
"1 	c #FFDB81",
"2 	c #FBD988",
"3 	c #FED57B",
"4 	c #FFD875",
"5 	c #FFD872",
"6 	c #FFDA74",
"7 	c #FFDB77",
"8 	c #FFDB7A",
"9 	c #FFDA79",
"0 	c #FFD97A",
"a 	c #FCD783",
"b 	c #FED273",
"c 	c #FFD36C",
"d 	c #FFD56B",
"e 	c #FFD66E",
"f 	c #FFD871",
"g 	c #FFD974",
"h 	c #FFDA77",
"i 	c #FFDC7C",
"j 	c #FFD977",
"k 	c #FFD874",
"l 	c #FFD773",
"m 	c #FFD574",
"n 	c #FBD37E",
"o 	c #FCCC6D",
"p 	c #FFD066",
"q 	c #FDD57B",
"r 	c #FDD478",
"s 	c #FFD263",
"t 	c #FFD66D",
"u 	c #FFD771",
"v 	c #FFDA7A",
"w 	c #FFD66F",
"x 	c #FFD46B",
"y 	c #FFD36E",
"z 	c #FFD36D",
"A 	c #FFD270",
"B 	c #F8C66E",
"C 	c #FFCC62",
"D 	c #FADC9B",
"E 	c #C3C2B2",
"F 	c #747664",
"G 	c #EFC76D",
"H 	c #FFD368",
"I 	c #FFD774",
"J 	c #FFD876",
"K 	c #FFD877",
"L 	c #FFD775",
"M 	c #FFD670",
"N 	c #FEDA92",
"O 	c #F9F2E0",
"P 	c #F7E1B0",
"Q 	c #FED06A",
"R 	c #FDCC6E",
"S 	c #FBC563",
"T 	c #FECE6C",
"U 	c #F2EEDF",
"V 	c #68695B",
"W 	c #505647",
"X 	c #CDB679",
"Y 	c #FFD166",
"Z 	c #FFCC6D",
"` 	c #FFB46B",
" .	c #FFA265",
"..	c #FF9F66",
"+.	c #FFAA6B",
"@.	c #FFBF6D",
"#.	c #FFD26D",
"$.	c #FCE9C7",
"%.	c #F3F2E7",
"&.	c #5C5C56",
"*.	c #CEAC69",
"=.	c #FFCB63",
"-.	c #F6C673",
";.	c #F3BE69",
">.	c #FEC75D",
",.	c #FAD488",
"'.	c #F0EFE3",
").	c #5B5C4E",
"!.	c #555B4B",
"~.	c #DEC690",
"{.	c #FFA953",
"].	c #FE8343",
"^.	c #FD7834",
"/.	c #FC661A",
"(.	c #FC6416",
"_.	c #FD671A",
":.	c #FE6D1F",
"<.	c #FF8A3C",
"[.	c #FFC66A",
"}.	c #FBECD1",
"|.	c #EDEBE0",
"1.	c #3A3A36",
"2.	c #837153",
"3.	c #FFCA5E",
"4.	c #FAC567",
"5.	c #F8C161",
"6.	c #FFCA5B",
"7.	c #FAD283",
"8.	c #F1EDE0",
"9.	c #C0BFB2",
"0.	c #AAA798",
"a.	c #FD9657",
"b.	c #F75C0A",
"c.	c #EC4F01",
"d.	c #E54B01",
"e.	c #E24A01",
"f.	c #E14901",
"g.	c #E44B01",
"h.	c #ED4F01",
"i.	c #F75904",
"j.	c #FE701B",
"k.	c #FBCEA9",
"l.	c #F4EEE0",
"m.	c #4F4E48",
"n.	c #6F634E",
"o.	c #FECE69",
"p.	c #FEC962",
"q.	c #FEC75E",
"r.	c #FFCC5D",
"s.	c #FECD61",
"t.	c #F5DBAC",
"u.	c #F6E7D1",
"v.	c #FB9052",
"w.	c #ED5203",
"x.	c #DC4800",
"y.	c #D44500",
"z.	c #D04300",
"A.	c #CF4201",
"B.	c #D24201",
"C.	c #D34300",
"D.	c #D64500",
"E.	c #DE4801",
"F.	c #EB4F01",
"G.	c #FB6817",
"H.	c #F7D5BA",
"I.	c #CFC7BA",
"J.	c #CAB494",
"K.	c #FFD068",
"L.	c #FFCE67",
"M.	c #FBCA70",
"N.	c #FAC565",
"O.	c #FFCB5C",
"P.	c #FFCE5D",
"Q.	c #FFCF60",
"R.	c #FFD065",
"S.	c #FC8F37",
"T.	c #E54E01",
"U.	c #CE4301",
"V.	c #CC4201",
"W.	c #CB4101",
"X.	c #CA4001",
"Y.	c #CD4001",
"Z.	c #D04201",
"`.	c #D54400",
" +	c #F87024",
".+	c #FBD49A",
"++	c #FED680",
"@+	c #FFD167",
"#+	c #FFD067",
"$+	c #FFCE6A",
"%+	c #F5C36C",
"&+	c #FEC95F",
"*+	c #FFCC5C",
"=+	c #FFCF5F",
"-+	c #FFD164",
";+	c #FBA447",
">+	c #E04D02",
",+	c #CF4401",
"'+	c #CD4201",
")+	c #CE4101",
"!+	c #CF4101",
"~+	c #CF4001",
"{+	c #D04101",
"]+	c #D04301",
"^+	c #D14101",
"/+	c #DD4801",
"(+	c #F98A30",
"_+	c #FFD269",
":+	c #FFCF64",
"<+	c #FFCE64",
"[+	c #FDCB6A",
"}+	c #FBC560",
"|+	c #FFCB5A",
"1+	c #FFCD5B",
"2+	c #FFD061",
"3+	c #FCBA59",
"4+	c #DA4F07",
"5+	c #CC4301",
"6+	c #D24101",
"7+	c #D44101",
"8+	c #D54200",
"9+	c #D74301",
"0+	c #D74300",
"a+	c #D74200",
"b+	c #D84200",
"c+	c #DA4400",
"d+	c #D84400",
"e+	c #D44201",
"f+	c #DE4B02",
"g+	c #FCAF50",
"h+	c #FFCE61",
"i+	c #FFCD5E",
"j+	c #FFC95E",
"k+	c #F6C56B",
"l+	c #F0BA5F",
"m+	c #FDC353",
"n+	c #FFC957",
"o+	c #FFCD5F",
"p+	c #FEBD63",
"q+	c #DE5C17",
"r+	c #CA4401",
"s+	c #D34200",
"t+	c #D64300",
"u+	c #D94300",
"v+	c #DC4300",
"w+	c #DD4401",
"x+	c #DD4400",
"y+	c #DE4401",
"z+	c #DE4501",
"A+	c #DF4601",
"B+	c #DE4601",
"C+	c #DD4501",
"D+	c #D94500",
"E+	c #D64701",
"F+	c #E55D11",
"G+	c #FEC565",
"H+	c #FFCE5F",
"I+	c #FFCB5B",
"J+	c #FEC757",
"K+	c #F7C25C",
"L+	c #EEB351",
"M+	c #FCBF4B",
"N+	c #FFC656",
"O+	c #FEB25A",
"P+	c #E47030",
"Q+	c #CA4601",
"R+	c #CB3F01",
"S+	c #CF3F01",
"T+	c #DD4300",
"U+	c #DF4200",
"V+	c #E14100",
"W+	c #E34200",
"X+	c #E34100",
"Y+	c #E14000",
"Z+	c #DF3F00",
"`+	c #E04000",
" @	c #DD4200",
".@	c #DB4500",
"+@	c #D64A01",
"@@	c #EE782E",
"#@	c #FFC35F",
"$@	c #FFC956",
"%@	c #FEC44F",
"&@	c #F7BD4E",
"*@	c #EBAC45",
"=@	c #F9BA4A",
"-@	c #FEA058",
";@	c #E87646",
">@	c #C54802",
",@	c #C93D01",
"'@	c #CA3801",
")@	c #D13A01",
"!@	c #D73C01",
"~@	c #DA3D01",
"{@	c #DC3D01",
"]@	c #DE3D01",
"^@	c #DF3D01",
"/@	c #E03E00",
"(@	c #E13F01",
"_@	c #DF3E01",
":@	c #DD3D01",
"<@	c #DD3D00",
"[@	c #DC3E00",
"}@	c #D83F00",
"|@	c #D74501",
"1@	c #D95103",
"2@	c #F68D47",
"3@	c #FFBB54",
"4@	c #FDC149",
"5@	c #F3B645",
"6@	c #E3A03A",
"7@	c #EF9A4D",
"8@	c #DC6D48",
"9@	c #C94F08",
"0@	c #C53C01",
"a@	c #D23B01",
"b@	c #D83E01",
"c@	c #DC4103",
"d@	c #E04202",
"e@	c #E34401",
"f@	c #E64602",
"g@	c #E94702",
"h@	c #EA4702",
"i@	c #EA4904",
"j@	c #E84804",
"k@	c #E74602",
"l@	c #E54502",
"m@	c #E24402",
"n@	c #E64802",
"o@	c #E44704",
"p@	c #DB4002",
"q@	c #D33C01",
"r@	c #D14401",
"s@	c #D85914",
"t@	c #F48E56",
"u@	c #F8B646",
"v@	c #EBA936",
"w@	c #D99337",
"x@	c #D97B38",
"y@	c #CA501C",
"z@	c #C7430E",
"A@	c #CD3F06",
"B@	c #D84100",
"C@	c #DE4300",
"D@	c #E84801",
"E@	c #F14D01",
"F@	c #F75101",
"G@	c #FB5401",
"H@	c #FD5601",
"I@	c #FD5801",
"J@	c #FE5901",
"K@	c #FC5601",
"L@	c #FA5401",
"M@	c #F24D01",
"N@	c #EB4801",
"O@	c #E24401",
"P@	c #DA4101",
"Q@	c #CF3C01",
"R@	c #D14801",
"S@	c #D46131",
"T@	c #E89444",
"U@	c #E09A2F",
"V@	c #D18937",
"W@	c #D27D23",
"X@	c #C55023",
"Y@	c #C14817",
"Z@	c #C24A19",
"`@	c #D74F0A",
" #	c #F55903",
".#	c #FE5F03",
"+#	c #FF6204",
"@#	c #FF6508",
"##	c #FF680A",
"$#	c #FF6807",
"%#	c #FF6908",
"&#	c #FF6A09",
"*#	c #FE6908",
"=#	c #FF6806",
"-#	c #FF6705",
";#	c #FF6706",
">#	c #FF6607",
",#	c #FF6307",
"'#	c #FE5F05",
")#	c #FB5D05",
"!#	c #F45909",
"~#	c #D95213",
"{#	c #D25727",
"]#	c #D45E39",
"^#	c #DB8530",
"/#	c #D99235",
"(#	c #CD863F",
"_#	c #D17E1C",
":#	c #CE6F0A",
"<#	c #C34C0A",
"[#	c #C45109",
"}#	c #CF6004",
"|#	c #D35D01",
"1#	c #E05903",
"2#	c #F0600C",
"3#	c #FC6E1B",
"4#	c #FF792D",
"5#	c #FF7C32",
"6#	c #FF7D35",
"7#	c #FF813E",
"8#	c #FF8342",
"9#	c #FE7C32",
"0#	c #FF7A2F",
"a#	c #FF7526",
"b#	c #FC6B17",
"c#	c #F1620D",
"d#	c #E45E08",
"e#	c #D65E0A",
"f#	c #D05B23",
"g#	c #CE5933",
"h#	c #D36D27",
"i#	c #D88925",
"j#	c #D69143",
"k#	c #D08231",
"l#	c #D57D08",
"m#	c #D97B01",
"n#	c #DC6F01",
"o#	c #D76301",
"p#	c #D26001",
"q#	c #CE5B01",
"r#	c #CD5701",
"s#	c #CD5101",
"t#	c #DA5303",
"u#	c #E65F15",
"v#	c #EE6F2E",
"w#	c #F1783C",
"x#	c #F27B41",
"y#	c #F0783D",
"z#	c #EE6E2C",
"A#	c #E86013",
"B#	c #DF5703",
"C#	c #D65701",
"D#	c #D65E01",
"E#	c #DB6501",
"F#	c #DF6A01",
"G#	c #E16E04",
"H#	c #DB770F",
"I#	c #DB8510",
"J#	c #D88B35",
"K#	c #D78525",
"L#	c #E08402",
"M#	c #E08100",
"N#	c #DE7A00",
"O#	c #DA6901",
"P#	c #D25800",
"Q#	c #CC5100",
"R#	c #CA4F00",
"S#	c #C94F00",
"T#	c #CA5000",
"U#	c #CB5000",
"V#	c #CC4F00",
"W#	c #CB4F00",
"X#	c #CC4F01",
"Y#	c #CE5100",
"Z#	c #D25400",
"`#	c #D35501",
" $	c #D75901",
".$	c #DC6001",
"+$	c #E07201",
"@$	c #E28301",
"#$	c #E18703",
"$$	c #DE8B25",
"%$	c #DE891E",
"&$	c #E17E00",
"*$	c #DE7B01",
"=$	c #DC7600",
"-$	c #D96B00",
";$	c #D46000",
">$	c #D05900",
",$	c #CE5200",
"'$	c #CE4F00",
")$	c #CE4E00",
"!$	c #CE4D00",
"~$	c #CE4E01",
"{$	c #D15000",
"]$	c #D35600",
"^$	c #DB6B00",
"/$	c #DE7A01",
"($	c #E08000",
"_$	c #E38501",
":$	c #E38D1A",
"<$	c #DE8615",
"[$	c #E17F00",
"}$	c #DF7B01",
"|$	c #DF7801",
"1$	c #DE7600",
"2$	c #DD7300",
"3$	c #DA7000",
"4$	c #D86E00",
"5$	c #D76B00",
"6$	c #D66800",
"7$	c #D66600",
"8$	c #D56700",
"9$	c #D86D00",
"0$	c #D97001",
"a$	c #DB7300",
"b$	c #DD7901",
"c$	c #E07D00",
"d$	c #E28710",
"e$	c #D48B4A",
"f$	c #DC8213",
"g$	c #DD7D01",
"h$	c #DE7901",
"i$	c #DD7801",
"j$	c #DD7700",
"k$	c #DB7500",
"l$	c #DB7400",
"m$	c #DA7300",
"n$	c #D87200",
"o$	c #D77200",
"p$	c #D77301",
"q$	c #D77400",
"r$	c #D87500",
"s$	c #D97800",
"t$	c #DB7C01",
"u$	c #DC8005",
"v$	c #D98729",
"w$	c #DBA366",
"x$	c #D99652",
"y$	c #D88C3F",
"z$	c #DA871B",
"A$	c #DA8306",
"B$	c #DA8001",
"C$	c #D97D01",
"D$	c #D87A01",
"E$	c #D87901",
"F$	c #D87801",
"G$	c #D77800",
"H$	c #D67700",
"I$	c #D67800",
"J$	c #D67B01",
"K$	c #D77D01",
"L$	c #D88001",
"M$	c #DA8402",
"N$	c #DC8809",
"O$	c #DE8E1F",
"P$	c #DC9A4B",
"Q$	c #E2AB62",
"R$	c #E4A452",
"S$	c #E59E40",
"T$	c #E59826",
"U$	c #E3910C",
"V$	c #E08B03",
"W$	c #DE8501",
"X$	c #DB7F01",
"Y$	c #D47401",
"Z$	c #D47301",
"`$	c #D57400",
" %	c #D57500",
".%	c #D77900",
"+%	c #DB8101",
"@%	c #DC8501",
"#%	c #E18C02",
"$%	c #E6940A",
"%%	c #E99C21",
"&%	c #ECA439",
"*%	c #EAAB53",
"=%	c #E7B46A",
"-%	c #EFB45C",
";%	c #F2B451",
">%	c #F3B042",
",%	c #F3AC31",
"'%	c #F1A71C",
")%	c #EEA00D",
"!%	c #EA9905",
"~%	c #E69202",
"{%	c #E28B01",
"]%	c #DE8401",
"^%	c #DA7F01",
"/%	c #D87C00",
"(%	c #D77A00",
"_%	c #D87B00",
":%	c #DA7D00",
"<%	c #DC8001",
"[%	c #E08701",
"}%	c #E38E03",
"|%	c #E79507",
"1%	c #EB9C0D",
"2%	c #F0A41C",
"3%	c #F5AD32",
"4%	c #F7B342",
"5%	c #F8B84E",
"6%	c #F7BC5B",
"7%	c #F1BD6D",
"8%	c #EDBC70",
"9%	c #F7BF62",
"0%	c #F9BF59",
"a%	c #FABE51",
"b%	c #FABC4A",
"c%	c #FAB940",
"d%	c #F9B634",
"e%	c #F8B22A",
"f%	c #F6AE1D",
"g%	c #F4AA15",
"h%	c #F0A40D",
"i%	c #ED9E08",
"j%	c #E99904",
"k%	c #E79402",
"l%	c #E49001",
"m%	c #E49002",
"n%	c #E69203",
"o%	c #E99705",
"p%	c #EC9C09",
"q%	c #F0A210",
"r%	c #F3A81B",
"s%	c #F6AD26",
"t%	c #F7B02F",
"u%	c #F9B438",
"v%	c #FCB944",
"w%	c #FDBE4F",
"x%	c #FEC157",
"y%	c #FEC45C",
"z%	c #FDC663",
"A%	c #F9C56D",
"B%	c #F8C36A",
"C%	c #FCC460",
"D%	c #FDC45C",
"E%	c #FEC457",
"F%	c #FEC353",
"G%	c #FEC34F",
"H%	c #FEC14A",
"I%	c #FDBF44",
"J%	c #FDBD3F",
"K%	c #FDBB38",
"L%	c #FCB932",
"M%	c #FAB72D",
"N%	c #F9B42A",
"O%	c #F8B225",
"P%	c #F7B01F",
"Q%	c #F6AF1E",
"R%	c #F6AE20",
"S%	c #F7B022",
"T%	c #F8B127",
"U%	c #F9B32D",
"V%	c #FBB533",
"W%	c #FCB83A",
"X%	c #FDBB3F",
"Y%	c #FEBE45",
"Z%	c #FEC04A",
"`%	c #FFC351",
" &	c #FFC558",
".&	c #FFC75C",
"+&	c #FFC962",
"@&	c #FFCB66",
"#&	c #FFCB68",
"$&	c #FDCA6C",
"                            . + @                               ",
"                        # $ % & * = - ;                         ",
"                      > , ' ) ! ~ { ] ^ /                       ",
"                    / ( _ _ ! : : < [ } | 1 2                   ",
"                  3 4 5 6 7 ~ } } ! _ 8 9 9 0 a                 ",
"                b c d e f g h ( i ( 9 j k l l m n               ",
"              o p q r s t u 4 | v v j k w x y z A               ",
"            B C D E F G H w I J K K L M x N O P Q R             ",
"            S T U V W X Y Z `  ...+.@.z #.$.%.&.*.=.-.          ",
"          ;.>.,.'.).!.~.{.].^./.(._.:.<.[.}.|.1.2.3.4.          ",
"          5.6.7.8.9.0.a.b.c.d.e.f.g.h.i.j.k.l.m.n.o.p.          ",
"          q.r.s.t.u.v.w.x.y.z.A.B.C.D.E.F.G.H.I.J.K.L.M.        ",
"        N.O.P.Q.R.S.T.y.U.V.W.X.X.Y.Z.C.`.e. +.+++@+#+$+        ",
"      %+&+*+=+-+;+>+,+'+)+!+~+{+]+A.^+^+!+{+/+(+_+R.:+<+[+      ",
"      }+|+1+2+3+4+5+A.{+6+7+8+9+0+a+b+c+d+e+B.f+g+:+h+i+j+k+    ",
"    l+m+n+o+p+q+r+!+^+s+t+u+v+w+x+y+z+A+B+C+D+E+F+G+H+I+J+K+    ",
"    L+M+N+O+P+Q+R+S+7+u+T+U+V+W+X+Y+Z+`+U+ @C+.@+@@@#@$@%@&@    ",
"    *@=@-@;@>@,@'@)@!@~@{@]@^@/@(@_@^@:@<@<@[@}@|@1@2@3@4@5@    ",
"    6@7@8@9@0@'@a@b@c@d@e@f@g@h@i@j@k@l@m@n@o@p@q@r@s@t@u@v@    ",
"    w@x@y@z@A@B@C@D@E@F@G@H@I@J@J@I@K@L@F@M@N@O@P@Q@R@S@T@U@    ",
"    V@W@X@Y@Z@`@ #.#+#@###$#%#&#*#=#-#;#>#,#'#)#!#~#{#]#^#/#    ",
"    (#_#:#<#[#}#|#1#2#3#4#5#6#7#8#7#9#0#a#b#c#d#e#f#g#h#i#j#    ",
"      k#l#m#n#o#p#q#r#s#t#u#v#w#x#y#z#A#B#C#D#E#F#G#H#I#J#      ",
"        K#L#M#N#O#P#Q#R#S#T#U#V#W#W#X#Y#Z#`# $.$+$@$#$$$        ",
"          %$@$&$*$=$-$;$>$,$'$)$!$~$~${$]$D#^$/$($_$:$          ",
"            <$[$}$|$1$2$3$4$5$6$7$8$6$9$0$a$=$b$c$d$            ",
"            e$f$g$*$/$h$i$j$k$l$m$n$o$p$q$r$s$t$u$v$            ",
"        w$x$y$z$A$B$C$m#D$E$F$F$F$G$H$I$J$K$L$M$N$O$P$          ",
"      Q$R$S$T$U$V$W$X$D$H$Y$Z$Z$`$ %H$.%C$+%@%#%$%%%&%*%        ",
"    =%-%;%>%,%'%)%!%~%{%]%^%/%(%.%_%:%<%[%}%|%1%2%3%4%5%6%7%    ",
"  8%9%0%a%b%c%d%e%f%g%h%i%j%k%l%m%n%o%p%q%r%s%t%u%v%w%x%y%z%A%  ",
"B%C%D%E%F%G%H%I%J%K%L%M%N%O%P%Q%R%S%T%U%V%W%X%Y%Z%`% &.&+&@&#&$&"};
