/* XPM */
static char * disobedience32x32_xpm[] = {
"32 32 648 2",
"  	c None",
". 	c #EAD7A0",
"+ 	c #E8D7A5",
"@ 	c #FEDE84",
"# 	c #FFE083",
"$ 	c #FFDE7D",
"% 	c #FFDF7D",
"& 	c #FFE185",
"* 	c #FEE189",
"= 	c #EACF94",
"- 	c #FFD56F",
"; 	c #FFD76F",
"> 	c #FFDA75",
", 	c #FFDD7D",
"' 	c #FFDC7A",
") 	c #FFD974",
"! 	c #FFD972",
"~ 	c #FFDA78",
"{ 	c #F5D68B",
"] 	c #F8D786",
"^ 	c #FFDB7B",
"/ 	c #FFDC7B",
"( 	c #FFDD7B",
"_ 	c #FFDF81",
": 	c #FFDF82",
"< 	c #FFDE80",
"[ 	c #FFDE7E",
"} 	c #FFDD7E",
"| 	c #FFD978",
"1 	c #FFDB81",
"2 	c #EAD39C",
"3 	c #FDD57C",
"4 	c #FFD875",
"5 	c #FFD872",
"6 	c #FFDA74",
"7 	c #FEDB77",
"8 	c #FFDB7A",
"9 	c #FFDA79",
"0 	c #FEDA79",
"a 	c #FFD97A",
"b 	c #F1D390",
"c 	c #FCD175",
"d 	c #FFD36C",
"e 	c #FFD56B",
"f 	c #FFD76E",
"g 	c #FFD871",
"h 	c #FFDC7C",
"i 	c #FEDB7B",
"j 	c #FFDA7A",
"k 	c #FFD977",
"l 	c #FFD874",
"m 	c #FFD774",
"n 	c #FFD773",
"o 	c #FFD574",
"p 	c #EECF90",
"q 	c #F3C979",
"r 	c #FFD066",
"s 	c #FED57C",
"t 	c #FDD478",
"u 	c #FED263",
"v 	c #FFD66D",
"w 	c #FFD772",
"x 	c #FFD979",
"y 	c #FEDA7A",
"z 	c #FFD66F",
"A 	c #FFD46B",
"B 	c #FFD36E",
"C 	c #FFD36D",
"D 	c #FFD16F",
"E 	c #FFCC63",
"F 	c #FADC9B",
"G 	c #C3C1B2",
"H 	c #747664",
"I 	c #EFC76D",
"J 	c #FFD369",
"K 	c #FFD775",
"L 	c #FFD776",
"M 	c #FFD877",
"N 	c #FFD670",
"O 	c #FEDA92",
"P 	c #F9F2E0",
"Q 	c #F7E1B1",
"R 	c #FED069",
"S 	c #FACC72",
"T 	c #F9C466",
"U 	c #FECE6C",
"V 	c #F2EEDF",
"W 	c #66675A",
"X 	c #505546",
"Y 	c #CEB77A",
"Z 	c #FED166",
"` 	c #FFCC6D",
" .	c #FFB46B",
"..	c #FFA367",
"+.	c #FE9F68",
"@.	c #FEAA6C",
"#.	c #FFBF6E",
"$.	c #FED36D",
"%.	c #FFD26D",
"&.	c #FCEAC8",
"*.	c #F4F3E8",
"=.	c #5A5B55",
"-.	c #CEAC69",
";.	c #FFCB63",
">.	c #D9BB8E",
",.	c #FEC75D",
"'.	c #FAD489",
").	c #F0EFE3",
"!.	c #5A5A4F",
"~.	c #555B4B",
"{.	c #DEC791",
"].	c #FFA954",
"^.	c #FE8344",
"/.	c #FD7936",
"(.	c #FC661B",
"_.	c #FC6417",
":.	c #FD671B",
"<.	c #FF6D20",
"[.	c #FF8A3D",
"}.	c #FEC66B",
"|.	c #FBECD1",
"1.	c #EFEDE1",
"2.	c #363732",
"3.	c #837152",
"4.	c #FFCA5E",
"5.	c #F6C56E",
"6.	c #F5C167",
"7.	c #FFCA5C",
"8.	c #FAD283",
"9.	c #F1EEE0",
"0.	c #BFBDB1",
"a.	c #A9A697",
"b.	c #FD9657",
"c.	c #F75C09",
"d.	c #EC4F00",
"e.	c #E54B00",
"f.	c #E24A00",
"g.	c #E14900",
"h.	c #E44B00",
"i.	c #ED5000",
"j.	c #F85901",
"k.	c #FE7019",
"l.	c #FBCFAA",
"m.	c #F4EEE0",
"n.	c #4D4C46",
"o.	c #6E624F",
"p.	c #FECE69",
"q.	c #FEC962",
"r.	c #FEC85E",
"s.	c #FFCD5D",
"t.	c #FECD61",
"u.	c #F6DBAC",
"v.	c #F6E7D1",
"w.	c #FB9050",
"x.	c #ED5202",
"y.	c #DC4800",
"z.	c #D44500",
"A.	c #D04300",
"B.	c #D04200",
"C.	c #D24200",
"D.	c #D34300",
"E.	c #D64500",
"F.	c #DE4800",
"G.	c #EB4F00",
"H.	c #FB6816",
"I.	c #F7D5BB",
"J.	c #CFC7BA",
"K.	c #C9B495",
"L.	c #FFD068",
"M.	c #FFCE67",
"N.	c #F3C97C",
"O.	c #F6C46B",
"P.	c #FFCB5C",
"Q.	c #FFCE5D",
"R.	c #FFCF61",
"S.	c #FFD065",
"T.	c #FC8F36",
"U.	c #E54E00",
"V.	c #D34500",
"W.	c #CE4300",
"X.	c #CB4200",
"Y.	c #CB4100",
"Z.	c #CA4000",
"`.	c #CA4001",
" +	c #CD4000",
".+	c #D54400",
"++	c #F87023",
"@+	c #FAD49B",
"#+	c #FED680",
"$+	c #FFD168",
"%+	c #FFD067",
"&+	c #FFCF6A",
"*+	c #DBBD8C",
"=+	c #FFC95F",
"-+	c #FFCC5C",
";+	c #FFCF5F",
">+	c #FFD164",
",+	c #FBA447",
"'+	c #E04D01",
")+	c #CF4400",
"!+	c #CD4200",
"~+	c #CE4100",
"{+	c #CF4101",
"]+	c #CF4000",
"^+	c #D04100",
"/+	c #CF4200",
"(+	c #D14200",
"_+	c #CF4100",
":+	c #DD4800",
"<+	c #F98A30",
"[+	c #FED269",
"}+	c #FFCF64",
"|+	c #FFCE65",
"1+	c #FACA6E",
"2+	c #FAC562",
"3+	c #FFCB5B",
"4+	c #FFCC5B",
"5+	c #FCBA5A",
"6+	c #DA4F07",
"7+	c #CC4300",
"8+	c #D14100",
"9+	c #D44200",
"0+	c #D54200",
"a+	c #D74300",
"b+	c #D74200",
"c+	c #D94300",
"d+	c #DA4400",
"e+	c #D84400",
"f+	c #DE4C01",
"g+	c #FCAF50",
"h+	c #FFCE61",
"i+	c #FFCC5F",
"j+	c #FFC95E",
"k+	c #E2C48D",
"l+	c #D9B782",
"m+	c #FDC353",
"n+	c #FFC957",
"o+	c #FFCD5F",
"p+	c #FEBD64",
"q+	c #DD5C17",
"r+	c #CA4400",
"s+	c #D34200",
"t+	c #D64300",
"u+	c #DC4300",
"v+	c #DD4400",
"w+	c #DE4400",
"x+	c #DE4600",
"y+	c #DF4600",
"z+	c #DD4600",
"A+	c #D94500",
"B+	c #D64700",
"C+	c #E55D11",
"D+	c #FEC567",
"E+	c #FFCE60",
"F+	c #FFC857",
"G+	c #F5C260",
"H+	c #EAB359",
"I+	c #FCBF4B",
"J+	c #FEC656",
"K+	c #FEB25A",
"L+	c #E47030",
"M+	c #C94600",
"N+	c #CB3F00",
"O+	c #CF3F00",
"P+	c #D44100",
"Q+	c #DD4300",
"R+	c #E04200",
"S+	c #E14100",
"T+	c #E34200",
"U+	c #E34100",
"V+	c #E14000",
"W+	c #DF3F00",
"X+	c #E04100",
"Y+	c #DF4200",
"Z+	c #DD4200",
"`+	c #DD4500",
" @	c #DA4500",
".@	c #D64A00",
"+@	c #EE782F",
"@@	c #FEC35F",
"#@	c #FFC956",
"$@	c #FEC44F",
"%@	c #F7BD4E",
"&@	c #EBAC45",
"*@	c #F9BA4B",
"=@	c #FEA059",
"-@	c #E87647",
";@	c #C54802",
">@	c #C93D00",
",@	c #C93800",
"'@	c #D03A00",
")@	c #D73C00",
"!@	c #DA3D00",
"~@	c #DC3D00",
"{@	c #DD3D00",
"]@	c #DF3D00",
"^@	c #E03E00",
"/@	c #E04000",
"(@	c #DF3E00",
"_@	c #DC3E00",
":@	c #D83F00",
"<@	c #D74500",
"[@	c #D95102",
"}@	c #F68D47",
"|@	c #FEBB55",
"1@	c #FDC14A",
"2@	c #F3B645",
"3@	c #E3A03B",
"4@	c #F09A4E",
"5@	c #DC6D48",
"6@	c #C94F08",
"7@	c #C63C00",
"8@	c #CA3800",
"9@	c #D23B00",
"0@	c #D83E00",
"a@	c #DD4201",
"b@	c #E04201",
"c@	c #E34400",
"d@	c #E64600",
"e@	c #E94700",
"f@	c #EA4700",
"g@	c #EA4903",
"h@	c #E84904",
"i@	c #E74600",
"j@	c #E54601",
"k@	c #E24501",
"l@	c #E64800",
"m@	c #E44703",
"n@	c #DB4001",
"o@	c #D33C00",
"p@	c #D14401",
"q@	c #D85914",
"r@	c #F48E56",
"s@	c #F9B747",
"t@	c #EBA937",
"u@	c #DA9337",
"v@	c #D97B39",
"w@	c #CA501B",
"x@	c #C7430E",
"y@	c #CD3F05",
"z@	c #D84100",
"A@	c #DE4300",
"B@	c #E84700",
"C@	c #F24D00",
"D@	c #F75100",
"E@	c #FB5400",
"F@	c #FD5600",
"G@	c #FE5800",
"H@	c #FE5900",
"I@	c #FC5600",
"J@	c #FA5400",
"K@	c #EB4800",
"L@	c #E24400",
"M@	c #DA4101",
"N@	c #CF3C00",
"O@	c #D14801",
"P@	c #D46131",
"Q@	c #E89445",
"R@	c #E09A2F",
"S@	c #CF8B3F",
"T@	c #D27D24",
"U@	c #C55024",
"V@	c #C14818",
"W@	c #C24A19",
"X@	c #D74F09",
"Y@	c #F55901",
"Z@	c #FE5F01",
"`@	c #FF6201",
" #	c #FF6504",
".#	c #FF6809",
"+#	c #FF6804",
"@#	c #FF6906",
"##	c #FF6A05",
"$#	c #FF6903",
"%#	c #FF6801",
"&#	c #FF6701",
"*#	c #FF6703",
"=#	c #FF6604",
"-#	c #FE6304",
";#	c #FB5D04",
">#	c #F45909",
",#	c #D95213",
"'#	c #D25728",
")#	c #D45E39",
"!#	c #DB8531",
"~#	c #D8933A",
"{#	c #C29972",
"]#	c #D17E1D",
"^#	c #CE6F08",
"/#	c #C34C09",
"(#	c #C45109",
"_#	c #CF6004",
":#	c #D25D00",
"<#	c #E05902",
"[#	c #F0600B",
"}#	c #FC6E1A",
"|#	c #FF7A2E",
"1#	c #FF7C36",
"2#	c #FE7D36",
"3#	c #FF823F",
"4#	c #FF8443",
"5#	c #FF813F",
"6#	c #FF7C35",
"7#	c #FF7A33",
"8#	c #FF7625",
"9#	c #FC6B15",
"0#	c #F1620C",
"a#	c #E45E07",
"b#	c #D75E0A",
"c#	c #D05B23",
"d#	c #CF5934",
"e#	c #D36D28",
"f#	c #D88926",
"g#	c #CEA170",
"h#	c #CD873F",
"i#	c #D57D06",
"j#	c #D97A01",
"k#	c #DC6F01",
"l#	c #D76301",
"m#	c #D26000",
"n#	c #CE5B00",
"o#	c #CD5700",
"p#	c #CD5100",
"q#	c #DB5302",
"r#	c #E75F15",
"s#	c #EE6F2E",
"t#	c #F1793F",
"u#	c #F27C44",
"v#	c #F0783E",
"w#	c #EE6E2C",
"x#	c #E86012",
"y#	c #DF5702",
"z#	c #D65700",
"A#	c #D65E00",
"B#	c #DB6500",
"C#	c #DF6A00",
"D#	c #E06E02",
"E#	c #DB770D",
"F#	c #DB850F",
"G#	c #D78E3C",
"H#	c #D48932",
"I#	c #E08301",
"J#	c #E08100",
"K#	c #DE7A00",
"L#	c #DA6900",
"M#	c #D25800",
"N#	c #CC5100",
"O#	c #CA4F00",
"P#	c #C95000",
"Q#	c #CA5100",
"R#	c #CC5000",
"S#	c #CB4F00",
"T#	c #CC4F00",
"U#	c #CE5100",
"V#	c #D25400",
"W#	c #D45500",
"X#	c #D65900",
"Y#	c #DC6001",
"Z#	c #E07200",
"`#	c #E18200",
" $	c #E18701",
".$	c #DD8C28",
"+$	c #D88F32",
"@$	c #E38300",
"#$	c #E17E00",
"$$	c #DE7B00",
"%$	c #DC7600",
"&$	c #D96B00",
"*$	c #D46000",
"=$	c #D05800",
"-$	c #CE5200",
";$	c #CE4F00",
">$	c #CE4D00",
",$	c #CE4E00",
"'$	c #D15000",
")$	c #D35600",
"!$	c #DB6B00",
"~$	c #E07F00",
"{$	c #E38500",
"]$	c #E18F1F",
"^$	c #DA8921",
"/$	c #E07E00",
"($	c #E07B00",
"_$	c #DF7800",
":$	c #DE7600",
"<$	c #DD7300",
"[$	c #DA7100",
"}$	c #D86D00",
"|$	c #D76B00",
"1$	c #D66900",
"2$	c #D66600",
"3$	c #D56600",
"4$	c #D66800",
"5$	c #D97000",
"6$	c #DB7300",
"7$	c #DD7900",
"8$	c #E2870F",
"9$	c #CC9361",
"0$	c #DC8212",
"a$	c #DD7D00",
"b$	c #DE7C00",
"c$	c #DE7900",
"d$	c #DD7800",
"e$	c #DD7700",
"f$	c #DC7500",
"g$	c #DB7400",
"h$	c #DA7300",
"i$	c #D87200",
"j$	c #D77200",
"k$	c #D77300",
"l$	c #D87400",
"m$	c #D87500",
"n$	c #D97800",
"o$	c #DB7C00",
"p$	c #DC8004",
"q$	c #D8882D",
"r$	c #D89654",
"s$	c #D88C3F",
"t$	c #DA871C",
"u$	c #DA8303",
"v$	c #DA8000",
"w$	c #D97D00",
"x$	c #D97B00",
"y$	c #D87A00",
"z$	c #D87900",
"A$	c #D87800",
"B$	c #D77800",
"C$	c #D67700",
"D$	c #D67800",
"E$	c #D67A00",
"F$	c #D77D00",
"G$	c #D88000",
"H$	c #DA8400",
"I$	c #DC8805",
"J$	c #DE8E20",
"K$	c #D0A16B",
"L$	c #D9AB70",
"M$	c #E4A453",
"N$	c #E59E40",
"O$	c #E59827",
"P$	c #E3910A",
"Q$	c #E08B01",
"R$	c #DF8500",
"S$	c #DB7F00",
"T$	c #D67600",
"U$	c #D47400",
"V$	c #D37300",
"W$	c #D47300",
"X$	c #D57400",
"Y$	c #D57500",
"Z$	c #D77900",
"`$	c #D97D01",
" %	c #DA8100",
".%	c #DC8500",
"+%	c #E18C00",
"@%	c #E59407",
"#%	c #E99C22",
"$%	c #ECA439",
"%%	c #E9AB56",
"&%	c #D0B28E",
"*%	c #E0B372",
"=%	c #EEB45C",
"-%	c #F2B451",
";%	c #F3B043",
">%	c #F3AC32",
",%	c #F1A71E",
"'%	c #EEA00B",
")%	c #EA9902",
"!%	c #E69200",
"~%	c #E28B00",
"{%	c #DE8400",
"]%	c #DA7F00",
"^%	c #D87C00",
"/%	c #D77A00",
"(%	c #D87B00",
"_%	c #DA7D00",
":%	c #DC8100",
"<%	c #E08700",
"[%	c #E38E00",
"}%	c #E79504",
"|%	c #EB9C0B",
"1%	c #F0A41E",
"2%	c #F5AD33",
"3%	c #F7B343",
"4%	c #F8B84F",
"5%	c #F8BC5B",
"6%	c #E4BB7D",
"7%	c #E3BA7A",
"8%	c #F7BF62",
"9%	c #F9BF5A",
"0%	c #FBBE52",
"a%	c #FABC4A",
"b%	c #FBB940",
"c%	c #FAB636",
"d%	c #F8B22B",
"e%	c #F6AE1F",
"f%	c #F4AA14",
"g%	c #F0A40A",
"h%	c #EC9E05",
"i%	c #E99901",
"j%	c #E79400",
"k%	c #E49000",
"l%	c #E69201",
"m%	c #E99702",
"n%	c #EC9C07",
"o%	c #F0A20F",
"p%	c #F3A81C",
"q%	c #F6AD28",
"r%	c #F7B130",
"s%	c #F9B53A",
"t%	c #FCB945",
"u%	c #FDBE4F",
"v%	c #FEC157",
"w%	c #FEC45D",
"x%	c #FDC663",
"y%	c #F1C375",
"z%	c #F8C36A",
"A%	c #FCC461",
"B%	c #FDC45C",
"C%	c #FEC458",
"D%	c #FEC354",
"E%	c #FEC34F",
"F%	c #FEC14A",
"G%	c #FDBF45",
"H%	c #FDBD40",
"I%	c #FDBB39",
"J%	c #FCB934",
"K%	c #FAB72F",
"L%	c #F9B42C",
"M%	c #F7B227",
"N%	c #F6B01F",
"O%	c #F6AF1E",
"P%	c #F6AE20",
"Q%	c #F7B023",
"R%	c #F7B129",
"S%	c #F9B32F",
"T%	c #FBB534",
"U%	c #FCB83A",
"V%	c #FDBB3F",
"W%	c #FEBE45",
"X%	c #FEC04B",
"Y%	c #FFC352",
"Z%	c #FFC658",
"`%	c #FFC75C",
" &	c #FFC962",
".&	c #FFCA66",
"+&	c #FFCB68",
"@&	c #FCCA6D",
"                              . +                               ",
"                          @ # $ % & *                           ",
"                      = - ; > , ' ) ! ~ {                       ",
"                    ] ^ / ( , _ : < [ } | 1 2                   ",
"                  3 4 5 6 7 ' } } , / 8 9 0 a b                 ",
"                c d e f g ) ~ ^ h i j k l m n o p               ",
"              q r s t u v w 4 x y y | l z A B C D               ",
"              E F G H I J z K L M M K N A O P Q R S             ",
"            T U V W X Y Z `  ...+.@.#.$.%.&.*.=.-.;.            ",
"          >.,.'.).!.~.{.].^./.(._.:.<.[.}.|.1.2.3.4.5.          ",
"          6.7.8.9.0.a.b.c.d.e.f.g.h.i.j.k.l.m.n.o.p.q.          ",
"          r.s.t.u.v.w.x.y.z.A.B.C.D.E.F.G.H.I.J.K.L.M.N.        ",
"        O.P.Q.R.S.T.U.V.W.X.Y.Z.`. +B.D..+f.++@+#+$+%+&+        ",
"      *+=+-+;+>+,+'+)+!+~+{+]+^+A./+(+(+_+^+:+<+[+r }+|+1+      ",
"      2+3+4+R.5+6+7+/+^+8+9+0+a+a+b+c+d+e+9+C.f+g+}+h+i+j+k+    ",
"    l+m+n+o+p+q+r+_+8+s+t+c+u+v+v+w+x+y+x+z+A+B+C+D+E+3+F+G+    ",
"    H+I+J+K+L+M+N+O+P+c+Q+R+S+T+U+V+W+X+Y+Z+`+ @.@+@@@#@$@%@    ",
"    &@*@=@-@;@>@,@'@)@!@~@{@]@^@/@(@]@{@{@{@_@:@<@[@}@|@1@2@    ",
"    3@4@5@6@7@8@9@0@a@b@c@d@e@f@g@h@i@j@k@l@m@n@o@p@q@r@s@t@    ",
"    u@v@w@x@y@z@A@B@C@D@E@F@G@H@H@G@I@J@D@C@K@L@M@N@O@P@Q@R@    ",
"    S@T@U@V@W@X@Y@Z@`@ #.#+#@###$#%#&#*#=#-#Z@;#>#,#'#)#!#~#    ",
"    {#]#^#/#(#_#:#<#[#}#|#1#2#3#4#5#6#7#8#9#0#a#b#c#d#e#f#g#    ",
"      h#i#j#k#l#m#n#o#p#q#r#s#t#u#v#w#x#y#z#A#B#C#D#E#F#G#      ",
"        H#I#J#K#L#M#N#O#P#Q#R#R#S#S#T#U#V#W#X#Y#Z#`# $.$        ",
"          +$@$#$$$%$&$*$=$-$;$>$>$,$,$'$)$A#!$K#~${$]$          ",
"            ^$/$($_$:$<$[$}$|$1$2$3$4$}$5$6$%$7$/$8$            ",
"            9$0$a$b$K#c$d$e$f$g$h$i$j$k$l$m$n$o$p$q$            ",
"          r$s$t$u$v$w$x$y$z$A$A$A$B$C$D$E$F$G$H$I$J$K$          ",
"      L$M$N$O$P$Q$R$S$y$T$U$V$W$X$Y$C$Z$`$ %.%+%@%#%$%%%&%      ",
"    *%=%-%;%>%,%'%)%!%~%{%]%^%/%Z$(%_%:%<%[%}%|%1%2%3%4%5%6%    ",
"  7%8%9%0%a%b%c%d%e%f%g%h%i%j%k%k%l%m%n%o%p%q%r%s%t%u%v%w%x%y%  ",
"z%A%B%C%D%E%F%G%H%I%J%K%L%M%N%O%P%Q%R%S%T%U%V%W%X%Y%Z%`% &.&+&@&"};
