/* XPM */
static char * disobedience16x16_xpm[] = {
"16 16 175 2",
"  	c None",
". 	c #F2D992",
"+ 	c #F1DA95",
"@ 	c #E9D095",
"# 	c #FFD975",
"$ 	c #FFDD7C",
"% 	c #FFDC7C",
"& 	c #FFDB7A",
"* 	c #F2D58E",
"= 	c #F2CF82",
"- 	c #FFD770",
"; 	c #FFD974",
"> 	c #FFDC7B",
", 	c #FFDB79",
"' 	c #FFD977",
") 	c #FBD67C",
"! 	c #E3C48B",
"~ 	c #EED18C",
"{ 	c #D8B96B",
"] 	c #FFD56E",
"^ 	c #FFD876",
"/ 	c #FFD979",
"( 	c #FFD774",
"_ 	c #FFD676",
": 	c #FBDE9B",
"< 	c #F5CD7B",
"[ 	c #FCCB6E",
"} 	c #A8A89B",
"| 	c #948B67",
"1 	c #FFB25B",
"2 	c #FE8E49",
"3 	c #FE8542",
"4 	c #FFA24E",
"5 	c #FDDB9C",
"6 	c #9C9C94",
"7 	c #D4AD5F",
"8 	c #E0BF84",
"9 	c #FDCD67",
"0 	c #E7DBC4",
"a 	c #E48850",
"b 	c #E54E03",
"c 	c #D94700",
"d 	c #DA4600",
"e 	c #E64D01",
"f 	c #F87D36",
"g 	c #C2B6A7",
"h 	c #CDAD6D",
"i 	c #F2C97A",
"j 	c #FCC961",
"k 	c #FFCF60",
"l 	c #F59439",
"m 	c #D54600",
"n 	c #CE4200",
"o 	c #CD4100",
"p 	c #CE4100",
"q 	c #D14200",
"r 	c #D64400",
"s 	c #F2863B",
"t 	c #FED26D",
"u 	c #FFCF66",
"v 	c #E4BD79",
"w 	c #FFCB5B",
"x 	c #F6A94D",
"y 	c #D04602",
"z 	c #D54200",
"A 	c #D94300",
"B 	c #DA4300",
"C 	c #DC4400",
"D 	c #DA4400",
"E 	c #D84701",
"F 	c #F7A84B",
"G 	c #FFCD5E",
"H 	c #F5C669",
"I 	c #F3B64D",
"J 	c #F8A454",
"K 	c #CF4F0D",
"L 	c #CD3C00",
"M 	c #D83F00",
"N 	c #DD4000",
"O 	c #E13F00",
"P 	c #E14000",
"Q 	c #DF3F00",
"R 	c #DE4000",
"S 	c #DB4200",
"T 	c #DD560C",
"U 	c #FCB554",
"V 	c #F9BE4B",
"W 	c #E1923E",
"X 	c #CD541E",
"Y 	c #CD3D02",
"Z 	c #DC4100",
"` 	c #E94901",
" .	c #F04D00",
"..	c #F45000",
"+.	c #F45102",
"@.	c #F14D00",
"#.	c #EC4B00",
"$.	c #E34501",
"%.	c #D33F00",
"&.	c #DC6427",
"*.	c #EBA43C",
"=.	c #CD883D",
"-.	c #C65513",
";.	c #CB520C",
">.	c #E95B01",
",.	c #FA650B",
"'.	c #FF711C",
").	c #FF7520",
"!.	c #FF7622",
"~.	c #FF711B",
"{.	c #FE6A11",
"].	c #F45F06",
"^.	c #DD5912",
"/.	c #D25F2F",
"(.	c #D69140",
"_.	c #D8810E",
":.	c #DC7300",
"<.	c #D35F00",
"[.	c #CC5200",
"}.	c #D55506",
"|.	c #DE621B",
"1.	c #DE6421",
"2.	c #DC5C10",
"3.	c #D75601",
"4.	c #D95F00",
"5.	c #E07301",
"6.	c #DD8411",
"7.	c #DF8209",
"8.	c #DE7900",
"9.	c #DA6D00",
"0.	c #D46200",
"a.	c #D35C00",
"b.	c #D25A00",
"c.	c #D35D00",
"d.	c #D76600",
"e.	c #DC7500",
"f.	c #E18204",
"g.	c #D68A34",
"h.	c #DC7F01",
"i.	c #DB7B00",
"j.	c #DA7800",
"k.	c #D97600",
"l.	c #D87500",
"m.	c #D77500",
"n.	c #D77800",
"o.	c #D97E00",
"p.	c #DB8716",
"q.	c #D6AF7A",
"r.	c #EBAA4A",
"s.	c #EB9F20",
"t.	c #E69204",
"u.	c #DF8500",
"v.	c #D97B00",
"w.	c #D67700",
"x.	c #DE8400",
"y.	c #E49004",
"z.	c #EDA01E",
"A.	c #F1AF48",
"B.	c #D9B786",
"C.	c #E2BB7B",
"D.	c #FBC25C",
"E.	c #FCC050",
"F.	c #FCBC41",
"G.	c #FAB631",
"H.	c #F6AF20",
"I.	c #F2A716",
"J.	c #EEA110",
"K.	c #EEA011",
"L.	c #F1A618",
"M.	c #F6AE26",
"N.	c #FAB637",
"O.	c #FCBC47",
"P.	c #FEC357",
"Q.	c #FEC762",
"R.	c #ECC47C",
"              . +               ",
"          @ # $ % & *           ",
"        = - ; > % , ' )         ",
"      ! ~ { ] ^ / ( _ : <       ",
"      [ } | 1 2 3 4 5 6 7       ",
"    8 9 0 a b c d e f g h i     ",
"    j k l m n o p q r s t u     ",
"  v w x y q z A B C D E F G H   ",
"  I J K L M N O P Q R S T U V   ",
"  W X Y Z `  ...+.@.#.$.%.&.*.  ",
"  =.-.;.>.,.'.).!.~.{.].^./.(.  ",
"    _.:.<.[.}.|.1.2.3.4.5.6.    ",
"      7.8.9.0.a.b.c.d.e.f.      ",
"      g.h.i.j.k.l.m.n.o.p.      ",
"  q.r.s.t.u.v.w.w.v.x.y.z.A.B.  ",
"C.D.E.F.G.H.I.J.K.L.M.N.O.P.Q.R."};
