/* XPM */
static char * disobedience16x16_xpm[] = {
"16 16 178 2",
"  	c None",
". 	c #FEDF85",
"+ 	c #FEE087",
"@ 	c #FDD97F",
"# 	c #FFD975",
"$ 	c #FFDD7C",
"% 	c #FFDC7C",
"& 	c #FFDB7A",
"* 	c #FEDA80",
"= 	c #FDD375",
"- 	c #FFD770",
"; 	c #FFD974",
"> 	c #FFDC7B",
", 	c #FFDC7D",
"' 	c #FFDB79",
") 	c #FFD976",
"! 	c #FED778",
"~ 	c #FCCA69",
"{ 	c #EED18C",
"] 	c #D8B96B",
"^ 	c #FFD66E",
"/ 	c #FFD876",
"( 	c #FFD979",
"_ 	c #FFD774",
": 	c #FED676",
"< 	c #FBDE9B",
"[ 	c #FDCF6F",
"} 	c #FCCC6D",
"| 	c #A9A89B",
"1 	c #948B67",
"2 	c #FFB25A",
"3 	c #FE8D48",
"4 	c #FD8540",
"5 	c #FFA24D",
"6 	c #FDDB9C",
"7 	c #9D9D95",
"8 	c #D4AD5F",
"9 	c #F9C462",
"0 	c #FDCE67",
"a 	c #E7DCC4",
"b 	c #E48851",
"c 	c #E54E03",
"d 	c #D94601",
"e 	c #DA4601",
"f 	c #E64D01",
"g 	c #F87D37",
"h 	c #C2B6A7",
"i 	c #CEAD6D",
"j 	c #FCCA6A",
"k 	c #FEC95F",
"l 	c #FFCF60",
"m 	c #F59439",
"n 	c #D54601",
"o 	c #CE4201",
"p 	c #CD4101",
"q 	c #CE4101",
"r 	c #D14201",
"s 	c #D64401",
"t 	c #F2863C",
"u 	c #FED26D",
"v 	c #FFCF66",
"w 	c #F8C15C",
"x 	c #FFCB5B",
"y 	c #F6A94D",
"z 	c #D04602",
"A 	c #D54200",
"B 	c #D94300",
"C 	c #DA4300",
"D 	c #DC4400",
"E 	c #DA4401",
"F 	c #D84701",
"G 	c #F7A84A",
"H 	c #FFCD5E",
"I 	c #FBC65E",
"J 	c #F4B64B",
"K 	c #F9A454",
"L 	c #CF4F0D",
"M 	c #CD3C01",
"N 	c #D83F01",
"O 	c #DE4001",
"P 	c #E14000",
"Q 	c #E14001",
"R 	c #DF3E00",
"S 	c #DE4000",
"T 	c #DB4200",
"U 	c #DD560D",
"V 	c #FCB554",
"W 	c #F9BE4B",
"X 	c #E1923E",
"Y 	c #CE541E",
"Z 	c #CD3D02",
"` 	c #DC4101",
" .	c #E94802",
"..	c #F04D01",
"+.	c #F35001",
"@.	c #F35102",
"#.	c #F14D01",
"$.	c #EC4A01",
"%.	c #E34502",
"&.	c #D33F01",
"*.	c #DC6427",
"=.	c #EBA33C",
"-.	c #D1822B",
";.	c #C65514",
">.	c #CB520C",
",.	c #E95B02",
"'.	c #FA650D",
").	c #FF711C",
"!.	c #FF7421",
"~.	c #FF7623",
"{.	c #FF711B",
"].	c #FE6A13",
"^.	c #F35F08",
"/.	c #DD5912",
"(.	c #D25F2F",
"_.	c #D98C32",
":.	c #D9800B",
"<.	c #DC7301",
"[.	c #D35F01",
"}.	c #CC5200",
"|.	c #D55506",
"1.	c #DE611B",
"2.	c #DE6420",
"3.	c #DC5B10",
"4.	c #D75601",
"5.	c #D95F01",
"6.	c #E07301",
"7.	c #DD8412",
"8.	c #E08105",
"9.	c #DE7901",
"0.	c #DA6D00",
"a.	c #D46200",
"b.	c #D25C00",
"c.	c #D25A00",
"d.	c #D35D00",
"e.	c #D76600",
"f.	c #DD7500",
"g.	c #E18204",
"h.	c #D9882C",
"i.	c #DC7F02",
"j.	c #DB7B01",
"k.	c #DA7801",
"l.	c #D97600",
"m.	c #D87500",
"n.	c #D77500",
"o.	c #D77801",
"p.	c #D97E01",
"q.	c #DB8715",
"r.	c #E8B163",
"s.	c #EBAA49",
"t.	c #EB9F20",
"u.	c #E69206",
"v.	c #DF8501",
"w.	c #D97B01",
"x.	c #D67701",
"y.	c #D67700",
"z.	c #D97B00",
"A.	c #DE8401",
"B.	c #E49006",
"C.	c #EDA01E",
"D.	c #F1AF47",
"E.	c #F1BA65",
"F.	c #F5C169",
"G.	c #FBC25C",
"H.	c #FCC04F",
"I.	c #FCBC40",
"J.	c #FAB630",
"K.	c #F6AF20",
"L.	c #F2A717",
"M.	c #EEA110",
"N.	c #EEA012",
"O.	c #F1A619",
"P.	c #F6AE26",
"Q.	c #FAB636",
"R.	c #FCBC46",
"S.	c #FEC356",
"T.	c #FEC762",
"U.	c #FBC86C",
"              . +               ",
"          @ # $ % & *           ",
"        = - ; > , ' ) !         ",
"      ~ { ] ^ / ( _ : < [       ",
"      } | 1 2 3 4 5 6 7 8       ",
"    9 0 a b c d e f g h i j     ",
"    k l m n o p q r s t u v     ",
"  w x y z r A B C D E F G H I   ",
"  J K L M N O P Q R S T U V W   ",
"  X Y Z `  ...+.@.#.$.%.&.*.=.  ",
"  -.;.>.,.'.).!.~.{.].^./.(._.  ",
"    :.<.[.}.|.1.2.3.4.5.6.7.    ",
"      8.9.0.a.b.c.d.e.f.g.      ",
"      h.i.j.k.l.m.n.o.p.q.      ",
"  r.s.t.u.v.w.x.y.z.A.B.C.D.E.  ",
"F.G.H.I.J.K.L.M.N.O.P.Q.R.S.T.U."};
