<?xml version="1.0" encoding="UTF-8" standalone="no"?>
<!-- Created with Inkscape (http://www.inkscape.org/) -->
<svg
   xmlns:dc="http://purl.org/dc/elements/1.1/"
   xmlns:cc="http://web.resource.org/cc/"
   xmlns:rdf="http://www.w3.org/1999/02/22-rdf-syntax-ns#"
   xmlns:svg="http://www.w3.org/2000/svg"
   xmlns="http://www.w3.org/2000/svg"
   xmlns:xlink="http://www.w3.org/1999/xlink"
   xmlns:sodipodi="http://sodipodi.sourceforge.net/DTD/sodipodi-0.dtd"
   xmlns:inkscape="http://www.inkscape.org/namespaces/inkscape"
   width="32"
   height="32"
   id="svg2304"
   sodipodi:version="0.32"
   inkscape:version="0.45.1"
   version="1.0"
   sodipodi:docbase="/Users/richard/Documents/Inkscape"
   sodipodi:docname="noteon.svg"
   inkscape:output_extension="org.inkscape.output.svg.inkscape"
   inkscape:export-filename="/Users/richard/Documents/Inkscape/noteson.png"
   inkscape:export-xdpi="90"
   inkscape:export-ydpi="90">
  <defs
     id="defs2306">
    <linearGradient
       id="linearGradient3200">
      <stop
         style="stop-color:#00c000;stop-opacity:1;"
         offset="0"
         id="stop3202" />
      <stop
         id="stop3208"
         offset="0.75"
         style="stop-color:#80ff80;stop-opacity:1;" />
      <stop
         style="stop-color:#00c000;stop-opacity:1;"
         offset="1"
         id="stop3204" />
    </linearGradient>
    <linearGradient
       inkscape:collect="always"
       xlink:href="#linearGradient3200"
       id="linearGradient3206"
       x1="0.053109944"
       y1="16.061862"
       x2="31.990934"
       y2="16.061862"
       gradientUnits="userSpaceOnUse" />
  </defs>
  <sodipodi:namedview
     id="base"
     pagecolor="#ffffff"
     bordercolor="#666666"
     borderopacity="1.0"
     gridtolerance="10000"
     guidetolerance="10"
     objecttolerance="10"
     inkscape:pageopacity="0.0"
     inkscape:pageshadow="2"
     inkscape:zoom="18.34375"
     inkscape:cx="16"
     inkscape:cy="16"
     inkscape:document-units="px"
     inkscape:current-layer="layer1"
     width="32px"
     height="32px"
     showgrid="true"
     showborder="true"
     inkscape:showpageshadow="false"
     inkscape:window-width="1031"
     inkscape:window-height="792"
     inkscape:window-x="391"
     inkscape:window-y="11" />
  <metadata
     id="metadata2309">
    <rdf:RDF>
      <cc:Work
         rdf:about="">
        <dc:format>image/svg+xml</dc:format>
        <dc:type
           rdf:resource="http://purl.org/dc/dcmitype/StillImage" />
      </cc:Work>
    </rdf:RDF>
  </metadata>
  <g
     inkscape:label="Layer 1"
     inkscape:groupmode="layer"
     id="layer1">
    <path
       id="path2312"
       style="fill:url(#linearGradient3206);fill-rule:evenodd;stroke:#000000;stroke-width:0.89378011px;stroke-linecap:butt;stroke-linejoin:round;stroke-opacity:1;fill-opacity:1.0"
       d="M 11.043557,5.610662 C 13.769281,4.8336965 29.90861,1.1279818 31.544044,0.62372499 C 31.544044,1.2642723 31.5,21.379001 31.5,22 C 31.5,24.484 28.14,26.5 24,26.5 C 19.86,26.5 16.5,24.484 16.5,22 C 16.5,19.516 19.86,17.5 24,17.5 C 25.035,17.5 26.02125,17.626 26.918437,17.853813 C 26.918437,17.212397 27.043557,7.2206785 27.043557,6.0621118 C 13.142364,9.2101891 28.736548,5.6918635 15.544044,8.6220189 C 15.544044,9.2625661 15.5,26.379 15.5,26.999999 C 15.5,29.483999 12.14,31.499999 8,31.499999 C 3.86,31.499999 0.5,29.483999 0.5,26.999999 C 0.5,24.515999 3.86,22.499999 8,22.499999 C 9.035,22.499999 10.02125,22.625998 10.918437,22.853812 C 10.918437,22.212396 11.043557,6.7692289 11.043557,5.610662 z "
       sodipodi:nodetypes="ccsssscccsssscc" />
  </g>
</svg>
